HIERARCHY
ROOT Hips
{
  OFFSET 0 0 0
  CHANNELS 6 Xposition Yposition Zposition Zrotation Xrotation Yrotation
  JOINT LeftUpLeg
  {
    OFFSET 4.06525 -3.90732 0.41711
    CHANNELS 3 Zrotation Xrotation Yrotation
    JOINT LeftLeg
    {
      OFFSET 0.00023 -18.4821 0.00367
      CHANNELS 3 Zrotation Xrotation Yrotation
      JOINT LeftFoot
      {
        OFFSET -0.00172 -15.2898 -0.02629
        CHANNELS 3 Zrotation Xrotation Yrotation
        JOINT LeftToeBase
        {
          OFFSET 0.36743 -3.19131 5.54287
          CHANNELS 3 Zrotation Xrotation Yrotation
          JOINT LeftToeBase2
          {
            OFFSET 0.08751 0.04849 1.36758
            CHANNELS 3 Zrotation Xrotation Yrotation
            JOINT LeftToeBase3
            {
              OFFSET 0.07484 0.06785 1.16707
            }
          }
        }
      }
    }
  }
  JOINT RightUpLeg
  {
    OFFSET -4.06526 -3.90731 0.41712
    CHANNELS 3 Zrotation Xrotation Yrotation
    JOINT RightLeg
    {
      OFFSET -0.00029 -18.4821 0.0044
      CHANNELS 3 Zrotation Xrotation Yrotation
      JOINT RightFoot
      {
        OFFSET 0.0016 -15.2898 -0.02569
        CHANNELS 3 Zrotation Xrotation Yrotation
        JOINT RightToeBase
        {
          OFFSET -0.3542 -3.19109 5.54386
          CHANNELS 3 Zrotation Xrotation Yrotation
          JOINT RightToeBase2
          {
            OFFSET -0.08424 0.04854 1.36778
            CHANNELS 3 Zrotation Xrotation Yrotation
            JOINT RightToeBase3
            {
              OFFSET -0.07205 0.0679 1.16725
            }
          }
        }
      }
    }
  }
  JOINT Spine
  {
    OFFSET 1e-005 4.46517 -0.10224
    CHANNELS 3 Zrotation Xrotation Yrotation
    JOINT Spine1
    {
      OFFSET 1e-005 4.46212 -0.1824
      CHANNELS 3 Zrotation Xrotation Yrotation
      JOINT Spine2
      {
        OFFSET 0 4.37937 -0.881
        CHANNELS 3 Zrotation Xrotation Yrotation
        JOINT Spine3
        {
          OFFSET 1e-005 4.68286 0.21414
          CHANNELS 3 Zrotation Xrotation Yrotation
          JOINT Neck
          {
            OFFSET 0 1.76964 0.82454
            CHANNELS 3 Zrotation Xrotation Yrotation
            JOINT Head
            {
              OFFSET 0 1.6961 0.93145
              CHANNELS 3 Zrotation Xrotation Yrotation
              JOINT Head_End
              {
                OFFSET 1e-005 7.8375 1.52603
              }
            }
          }
          JOINT LeftShoulder
          {
            OFFSET 1.19381 -0.75881 -0.02768
            CHANNELS 3 Zrotation Xrotation Yrotation
            JOINT LeftArm
            {
              OFFSET 5.18779 -2e-005 1e-005
              CHANNELS 3 Zrotation Xrotation Yrotation
              JOINT LeftForeArm
              {
                OFFSET 12.7364 -4e-005 2e-005
                CHANNELS 3 Zrotation Xrotation Yrotation
                JOINT LeftHand
                {
                  OFFSET 9.21452 -2e-005 1e-005
                  CHANNELS 3 Zrotation Xrotation Yrotation
                }
              }
            }
          }
          JOINT RightShoulder
          {
            OFFSET -1.19381 -0.75881 -0.02767
            CHANNELS 3 Zrotation Xrotation Yrotation
            JOINT RightArm
            {
              OFFSET -5.18779 1e-005 -1e-005
              CHANNELS 3 Zrotation Xrotation Yrotation
              JOINT RightForeArm
              {
                OFFSET -12.7364 3e-005 -2e-005
                CHANNELS 3 Zrotation Xrotation Yrotation
                JOINT RightHand
                {
                  OFFSET -9.21452 2e-005 -1e-005
                  CHANNELS 3 Zrotation Xrotation Yrotation
                }
              }
            }
          }
        }
      }
    }
  }
}
MOTION
Frames: 13
Frame Time: 	0.0166667
-0.994581 40.7878 -0.362338 0.921196 -4.09441 2.45216 5.60161 0.296313 -6.35481  3.16739 13.9046 4.05201  -9.36193 -9.8495 -0.000308057  -0.00154002 -0.00098981 -2.77754e-009  -0 0 -0   -5.18552 -2.02062 -6.57354  -1.23757 21.0576 -5.4345  6.44023 -13.8175 0.738922  -2.34016e-011 -5.38977e-011 1.44283e-010  -0 0 -0   -4.05275 1.54254 2.07171  -0.18803 0.000132095 0.0492683  -0.186985 0.00377362 0.0489856  -0.18591 0.00243083 0.0487558  -3.85145e-015 -2.36554e-013 -2.28205e-013  5.16221 -1.95212 -21.6654   0.121046 -4.07452e-005 3.63036  -60.9838 19.8091 -13.3281  2.31409 3.79082 -24.4894  -21.4051 -0.765307 10.1479  -13.5195 2.1108 -3.26836  20.5634 -32.4332 46.2464  -30.1994 -21.2121 84.4144  -20.1747 33.4523 13.9124 
-0.999233 40.7882 -0.368696 0.90375 -4.09466 2.38852 5.62723 0.304164 -6.31554  3.16567 13.8975 4.07067  -9.36992 -9.84189 0.00092545  -0.00154002 -0.00098981 -2.77754e-009  -0 0 -0   -5.16218 -2.04307 -6.55883  -1.23114 21.0551 -5.40635  6.41244 -13.8 0.73796  -2.34016e-011 -5.38977e-011 1.44283e-010  -0 0 -0   -4.03714 1.54288 2.02598  -0.187157 -0.0002108 0.0165688  -0.185866 0.00389606 0.0162977  -0.184545 0.00248873 0.0160878  -3.85145e-015 -2.36554e-013 -2.28205e-013  5.36414 -1.88274 -21.6977   0.121045 -2.71544e-005 3.63082  -61.0586 19.5567 -13.1593  2.21515 3.53009 -24.6091  -21.3759 -0.768457 10.2213  -12.0935 1.9034 -3.36527  21.6035 -31.9284 47.0533  -30.6876 -25.0683 79.7904  -21.2056 31.8631 12.9693 
-1.00434 40.7887 -0.376487 0.888471 -4.09442 2.31555 5.65114 0.31258 -6.26592  3.16434 13.8856 4.08862  -9.37794 -9.83022 0.00324865  -0.00154002 -0.00098981 -2.77754e-009  -0 0 -0   -5.14254 -2.07418 -6.54515  -1.22322 21.0597 -5.36962  6.38086 -13.7831 0.737019  -2.34016e-011 -5.38977e-011 1.44283e-010  -0 0 -0   -4.0104 1.54501 1.96396  -0.184897 -0.00112276 -0.0173564  -0.18334 0.00322123 -0.0176241  -0.181751 0.00203703 -0.0178224  -3.85145e-015 -2.36554e-013 -2.28205e-013  5.55551 -1.79068 -21.7033   0.121044 -8.93961e-006 3.6313  -61.1253 19.3191 -12.9679  2.11332 3.26562 -24.7308  -21.3501 -0.771251 10.2874  -10.6993 1.70855 -3.5043  22.8115 -31.434 48.365  -31.1645 -29.3933 74.9304  -22.2818 30.4237 12.1137 
-1.00975 40.7892 -0.38538 0.872943 -4.09356 2.23858 5.67658 0.318274 -6.20998  3.16188 13.8733 4.10442  -9.38583 -9.81695 0.00576094  -0.00154002 -0.00098981 -2.77754e-009  -0 0 -0   -5.12229 -2.11071 -6.52953  -1.21522 21.0664 -5.33189  6.34791 -13.7649 0.736068  -2.34016e-011 -5.38977e-011 1.44283e-010  -0 0 -0   -3.97957 1.55072 1.90063  -0.181885 -0.0024963 -0.0487466  -0.180088 0.000983734 -0.0490144  -0.178258 0.00109994 -0.0492052  -3.85145e-015 -2.36554e-013 -2.28205e-013  5.73201 -1.67872 -21.7039   0.121042 1.37183e-005 3.6318  -61.1805 19.1165 -12.7837  2.01034 3.00629 -24.8358  -21.3294 -0.773867 10.3456  -9.38088 1.51464 -3.59134  24.0813 -30.939 49.9679  -31.6781 -34.3227 69.8203  -23.0498 29.1767 11.2418 
-1.01532 40.7898 -0.395146 0.85492 -4.09193 2.16478 5.70696 0.316762 -6.1523  3.15736 13.8655 4.11537  -9.39294 -9.80427 0.00835301  -0.00154002 -0.00098981 -2.77754e-009  -0 0 -0   -5.09642 -2.14964 -6.50738  -1.20926 21.0701 -5.30405  6.31716 -13.7432 0.735076  -2.34016e-011 -5.38977e-011 1.44283e-010  -0 0 -0   -3.95263 1.56025 1.85536  -0.176778 -0.0057716 -0.0713231  -0.174796 -0.00189914 -0.0715918  -0.172778 -0.000298301 -0.0717777  -3.85145e-015 -2.36554e-013 -2.28205e-013  5.89325 -1.54996 -21.7027   0.121041 4.06355e-005 3.63232  -61.2143 18.9854 -12.6505  1.90766 2.76063 -24.9006  -21.3155 -0.776389 10.3947  -8.31542 1.35785 -3.67127  25.337 -30.4581 51.7201  -32.2393 -40.1508 64.5379  -22.9745 28.2014 10.2592 
-1.02111 40.7903 -0.405707 0.836817 -4.08969 2.09694 5.74014 0.309823 -6.09115  3.14937 13.8598 4.11734  -9.39807 -9.79105 0.0109385  -0.00154002 -0.00098981 -2.77754e-009  -0 0 -0   -5.06855 -2.19019 -6.48486  -1.20479 21.0736 -5.28284  6.28803 -13.7204 0.734025  -2.34016e-011 -5.38977e-011 1.44283e-010  -0 0 -0   -3.9257 1.57095 1.82834  -0.170808 -0.00955325 -0.0839254  -0.168712 -0.00527642 -0.0841994  -0.166576 -0.00213347 -0.0843869  -3.85145e-015 -2.36554e-013 -2.28205e-013  6.04451 -1.40703 -21.6999   0.121039 7.16286e-005 3.63284  -61.2198 18.9385 -12.5777  1.79911 2.5213 -24.9173  -21.3106 -0.778704 10.4308  -7.49261 1.23558 -3.72896  26.4401 -30.0389 53.4228  -33.0335 -46.3278 59.447  -22.4233 27.6772 9.3806 
-1.02718 40.7908 -0.417039 0.82089 -4.08698 2.04354 5.77552 0.296652 -6.0248  3.13616 13.8558 4.10071  -9.39963 -9.77666 0.0134816  -0.00154002 -0.00098981 -2.77754e-009  -0 0 -0   -5.04097 -2.23026 -6.46843  -1.20226 21.0793 -5.27016  6.26162 -13.6988 0.732898  -2.34016e-011 -5.38977e-011 1.44283e-010  -0 0 -0   -3.89711 1.58035 1.83392  -0.165831 -0.0136327 -0.0801867  -0.163743 -0.00899718 -0.0804736  -0.161614 -0.00438132 -0.0806746  -3.85145e-015 -2.36554e-013 -2.28205e-013  6.19133 -1.25369 -21.696   0.121036 0.000106516 3.63335  -61.176 19.0261 -12.6114  1.68082 2.274 -24.8578  -21.3174 -0.780555 10.447  -7.03889 1.16333 -3.73975  27.2055 -29.783 54.8251  -33.7061 -52.4566 55.045  -21.3622 27.9304 8.76051 
-1.03327 40.7913 -0.428803 0.805249 -4.08206 1.9946 5.81178 0.280527 -5.9578  3.12102 13.8539 4.07931  -9.39959 -9.76183 0.0159461  -0.00154002 -0.00098981 -2.77754e-009  -0 0 -0   -5.01287 -2.27071 -6.45266  -1.20061 21.0849 -5.26147  6.23641 -13.6766 0.731583  -2.34016e-011 -5.38977e-011 1.44283e-010  -0 0 -0   -3.86814 1.58897 1.84897  -0.160787 -0.0180993 -0.0694511  -0.158766 -0.0136268 -0.0697562  -0.156706 -0.00917317 -0.0699774  -3.85145e-015 -2.36554e-013 -2.28205e-013  6.33249 -1.0897 -21.6912   0.121034 0.000145116 3.63386  -61.1135 19.1714 -12.6855  1.56967 2.04762 -24.7599  -21.3353 -0.782752 10.4516  -6.80847 1.12633 -3.75028  27.7505 -29.6335 55.9879  -34.4635 -58.0617 51.4315  -20.354 28.6483 8.43904 
-1.03909 40.7919 -0.44075 0.788185 -4.07638 1.94352 5.8481 0.263161 -5.89654  3.10662 13.8521 4.06536  -9.39853 -9.74761 0.0183951  -0.00154002 -0.00098981 -2.77754e-009  -0 0 -0   -4.98315 -2.31181 -6.43373  -1.19912 21.0883 -5.25397  6.21153 -13.6524 0.730062  -2.34016e-011 -5.38977e-011 1.44283e-010  -0 0 -0   -3.83989 1.59631 1.85582  -0.154572 -0.023782 -0.0584376  -0.152633 -0.0194948 -0.0587646  -0.150656 -0.0152255 -0.0590103  -3.85145e-015 -2.36554e-013 -2.28205e-013  6.4655 -0.914327 -21.6834   0.121031 0.000187244 3.63436  -61.0558 19.3191 -12.7522  1.47761 1.86353 -24.6493  -21.364 -0.785203 10.4514  -6.69882 1.10575 -3.74159  28.0894 -29.5682 56.8457  -34.71 -62.356 49.1426  -20.0526 29.7596 8.60147 
-1.04469 40.7925 -0.452612 0.771876 -4.07094 1.88871 5.88245 0.248439 -5.83393  3.09367 13.8487 4.05388  -9.39699 -9.73248 0.0209752  -0.00154002 -0.00098981 -2.77754e-009  -0 0 -0   -4.95494 -2.35322 -6.41319  -1.1972 21.0917 -5.24439  6.18635 -13.6279 0.728481  -2.34016e-011 -5.38977e-011 1.44283e-010  -0 0 -0   -3.81133 1.60289 1.85238  -0.149181 -0.0295622 -0.048666  -0.147324 -0.025457 -0.0490181  -0.14543 -0.0213691 -0.0492916  -3.85145e-015 -2.36554e-013 -2.28205e-013  6.6003 -0.73302 -21.6652   0.121028 0.00023272 3.63484  -61.0043 19.4557 -12.8018  1.40982 1.73118 -24.534  -21.4065 -0.788409 10.4435  -6.66848 1.09778 -3.73152  28.3038 -29.5528 57.4941  -34.5515 -65.4554 47.8821  -20.3552 30.9577 9.13147 
-1.04974 40.7932 -0.463507 0.759362 -4.06738 1.8216 5.90953 0.245793 -5.7605  3.0862 13.8341 4.04455  -9.39554 -9.71422 0.0238654  -0.00154002 -0.00098981 -2.77754e-009  -0 0 -0   -4.93489 -2.39423 -6.39392  -1.19244 21.0979 -5.22121  6.15831 -13.6056 0.726851  -2.34016e-011 -5.38977e-011 1.44283e-010  -0 0 -0   -3.78326 1.60762 1.81698  -0.148009 -0.034406 -0.0470419  -0.146186 -0.0303895 -0.0474258  -0.144328 -0.0263896 -0.0477326  -3.85145e-015 -2.36554e-013 -2.28205e-013  6.75796 -0.547745 -21.6166   0.121025 0.00028136 3.63529  -60.9783 19.5141 -12.778  1.37831 1.67713 -24.4505  -21.4667 -0.793256 10.4356  -6.62786 1.08936 -3.7255  28.4871 -29.5283 58.0143  -34.3227 -67.0142 47.2562  -21.4793 31.8532 10.0061 
-1.05511 40.7938 -0.474953 0.746149 -4.06349 1.75672 5.93832 0.240302 -5.68987  3.07751 13.8217 4.03545  -9.39484 -9.69598 0.026633  -0.00154002 -0.00098981 -2.77754e-009  -0 0 -0   -4.91141 -2.43627 -6.36813  -1.18953 21.1041 -5.20641  6.13234 -13.5825 0.725163  -2.34016e-011 -5.38977e-011 1.44283e-010  -0 0 -0   -3.75138 1.61479 1.79071  -0.145752 -0.0387405 -0.0441275  -0.143969 -0.0348256 -0.0445365  -0.142151 -0.0309264 -0.04487  -3.85145e-015 -2.36554e-013 -2.28205e-013  6.90224 -0.368246 -21.5875   0.121022 0.000332981 3.63572  -60.9483 19.6002 -12.7721  1.36613 1.6721 -24.3385  -21.542 -0.795761 10.4023  -6.61204 1.08471 -3.71806  28.5998 -29.5215 58.3688  -34.0172 -67.6001 47.0187  -23.0449 32.5139 11.0319 
-1.06231 40.7943 -0.489105 0.727252 -4.05632 1.71618 5.98143 0.212076 -5.63544  3.05814 13.8271 4.01699  -9.39546 -9.68038 0.0293281  -0.00154002 -0.00098981 -2.77754e-009  -0 0 -0   -4.86923 -2.48127 -6.32606  -1.19521 21.1076 -5.23124  6.11522 -13.5547 0.723409  -2.34016e-011 -5.38977e-011 1.44283e-010  -0 0 -0   -3.70781 1.63214 1.83762  -0.135868 -0.0423319 -0.0263978  -0.1342 -0.0386763 -0.0268042  -0.1325 -0.0350358 -0.0271389  -3.85145e-015 -2.36554e-013 -2.28205e-013  6.98814 -0.211692 -21.6527   0.121019 0.000387401 3.6361  -60.8645 19.8738 -12.9235  1.34699 1.67511 -24.1068  -21.6324 -0.797326 10.3009  -6.62997 1.08443 -3.70193  28.6352 -29.5427 58.5691  -34.5466 -68.3385 46.1699  -24.4212 33.1114 12.0084 
